# xmcd
#
# Track frame offsets:
# 150
# 12408
# 23107
# 36064
# 50272
# 64651
# 76153
# 88657
# 100304
# 113774
# 127623
# 141273
# 154186
# 172249
# 187318
# 202340
#
# Disc length: 2835 seconds
#
#
# Revision: 4
# Processed by: cddbd v1.5.2PL0 Copyright (c) Steve Scherf et al.
# Submitted via: FreeRIP 2.951 
#
DISCID=da0b1110
DTITLE=Altemar Dutra - Altemar Dutra - O Inesquecível
DYEAR=2002
DGENRE=Popular
TTITLE0=Faixa 01 - Que Queres Tu De Mim
TTITLE1=Faixa 02 - Sentimental Demais
TTITLE2=Faixa 03 - O Trovador
TTITLE3=Faixa 04 - Modinha
TTITLE4=Faixa 05 - Brigas
TTITLE5=Faixa 06 - Jura-me (Jurame)
TTITLE6=Faixa 07 - Meu Velho (Mi Viejo)
TTITLE7=Faixa 08 - Creio Em Ti (I Believe)
TTITLE8=Faixa 09 - Tudo De Mim
TTITLE9=Faixa 10 - Somos Iguais
TTITLE10=Faixa 11 - Oferenda
TTITLE11=Faixa 12 - A Pretendida
TTITLE12=Faixa 13 - Serra Da Boa Esperença
TTITLE13=Faixa 14 - Eu Nunca Mais Vou Te Equecer
TTITLE14=Faixa 15 - Gente Humilde
TTITLE15=Faixa 16 - As Rosas Não Falam ( Participação De Alcione)
EXTD=pedro.rp@oi.com.br\nDez. 2006
EXTT0=
EXTT1=
EXTT2=
EXTT3=
EXTT4=
EXTT5=
EXTT6=
EXTT7=
EXTT8=
EXTT9=
EXTT10=
EXTT11=
EXTT12=
EXTT13=
EXTT14=
EXTT15=
PLAYORDER=
